#!OML:ASF H:\LiuWeirdWalks\Patient Classification 1\Patient 1\Session 1\male.ASF
:FULLY-SPECIFIED
:DEGREES
130
root -1.36474 18.3794 -24.325 10.9657 4.69365 -3.57159
lowerback 8.40856 -0.315894 3.02648
upperback -1.93957 0.266158 5.34991
thorax -6.79338 0.130334 3.9007
lowerneck -15.8862 1.51485 0.614112
upperneck 14.2744 3.56018 -9.24669
head 7.19635 0.899595 -2.73635
rclavicle -4.57205e-015 1.11319e-014
rhumerus -26.4754 -0.981143 -78.6736
rradius 23.034
rwrist -6.48349
rhand -18.0013 -5.46297
rfingers 7.12502
rthumb 8.26913 -35.2811
lclavicle -4.57205e-015 1.11319e-014
lhumerus -50.1748 5.2231 87.484
lradius 28.2601
lwrist 9.78335
lhand -12.4151 0.637022
lfingers 7.12502
lthumb 13.657 30.169
rfemur 5.07723 -1.98529 26.7079
rtibia 16.9614
rfoot 4.53457 -18.3794
rtoes -20.356
lfemur -35.475 -0.121744 -14.8036
ltibia 28.2631
lfoot -15.4067 12.5838
ltoes -16.8992
131
root -1.36072 18.3342 -24.2189 11.1692 4.77078 -3.59778
lowerback 8.54864 -0.281425 3.07083
upperback -1.95183 0.326694 5.33761
thorax -6.88947 0.158119 3.85672
lowerneck -15.8367 1.51338 0.646177
upperneck 14.101 3.53335 -9.24097
head 7.13011 0.896101 -2.74066
rclavicle 2.78299e-015 3.81667e-014
rhumerus -25.7798 -0.37512 -78.9377
rradius 23.6482
rwrist -7.06736
rhand -18.1402 -5.2647
rfingers 7.12502
rthumb 8.13506 -35.0881
lclavicle 2.78299e-015 3.81667e-014
lhumerus -50.4826 5.59489 86.9012
lradius 27.8283
lwrist 9.29374
lhand -12.1964 0.783337
lfingers 7.12502
lthumb 13.8677 30.301
rfemur 5.91464 -1.65154 26.9078
rtibia 15.7412
rfoot 4.72677 -18.8135
rtoes -20.3322
lfemur -36.4938 0.0386969 -15.0536
ltibia 27.7369
lfoot -15.5092 12.2936
ltoes -17.0762
132
root -1.35537 18.2851 -24.1112 11.3837 4.82481 -3.57001
lowerback 8.68466 -0.251576 3.0857
upperback -1.97784 0.376444 5.2969
thorax -6.9971 0.181071 3.80069
lowerneck -15.7876 1.53284 0.702625
upperneck 13.9693 3.53482 -9.24395
head 7.07965 0.905288 -2.74926
rclavicle 1.41137e-014 -1.11319e-014
rhumerus -25.0907 0.220379 -79.1927
rradius 24.2687
rwrist -7.54755
rhand -18.3052 -5.03744
rfingers 7.12502
rthumb 7.97579 -34.867
lclavicle 1.41137e-014 -1.11319e-014
lhumerus -50.8001 5.99541 86.2439
lradius 27.3573
lwrist 8.77503
lhand -12.0018 0.880912
lfingers 7.12502
lthumb 14.0553 30.3856
rfemur 6.74898 -1.39597 27.0269
rtibia 14.5398
rfoot 4.8681 -19.2085
rtoes -20.3785
lfemur -37.5003 0.213841 -15.3836
ltibia 27.283
lfoot -15.5706 12.0875
ltoes -17.3273
133
root -1.34832 18.2332 -24.0022 11.6126 4.83689 -3.48484
lowerback 8.83366 -0.212517 3.0613
upperback -2.01606 0.433646 5.22889
thorax -7.12534 0.208602 3.73685
lowerneck -15.7298 1.54972 0.75401
upperneck 13.8341 3.5332 -9.24492
head 7.02634 0.91318 -2.75668
rclavicle -8.34896e-015 2.22639e-014
rhumerus -24.4207 0.815586 -79.4302
rradius 24.9305
rwrist -7.99657
rhand -18.5171 -4.84836
rfingers 7.12502
rthumb 7.77126 -34.6856
lclavicle -8.34896e-015 2.22639e-014
lhumerus -51.1154 6.43858 85.5127
lradius 26.8495
lwrist 8.2258
lhand -11.8385 0.946115
lfingers 7.12502
lthumb 14.2127 30.4399
rfemur 7.54469 -1.2097 27.048
rtibia 13.4149
rfoot 4.94731 -19.5255
rtoes -20.4974
lfemur -38.4784 0.38976 -15.7861
ltibia 26.8955
lfoot -15.6083 11.9672
ltoes -17.4832
134
root -1.33952 18.1798 -23.8912 11.8631 4.78289 -3.35538
lowerback 8.97637 -0.162563 2.99793
upperback -2.05264 0.49851 5.14
thorax -7.24839 0.240957 3.67109
lowerneck -15.6813 1.57735 0.815072
upperneck 13.6971 3.54743 -9.26453
head 6.9756 0.9273 -2.77012
rclavicle 2.78299e-015 -1.74931e-014
rhumerus -23.742 1.41523 -79.655
rradius 25.6232
rwrist -8.40876
rhand -18.7585 -4.73086
rfingers 7.12502
rthumb 7.53828 -34.5765
lclavicle 2.78299e-015 -1.74931e-014
lhumerus -51.4071 6.96226 84.6908
lradius 26.3036
lwrist 7.6209
lhand -11.7155 0.914526
lfingers 7.12502
lthumb 14.3312 30.3999
rfemur 8.25297 -1.05779 26.9771
rtibia 12.4427
rfoot 4.94082 -19.7563
rtoes -20.6705
lfemur -39.417 0.578 -16.2419
ltibia 26.5675
lfoot -15.6354 11.9253
ltoes -17.5556
135
root -1.32904 18.1261 -23.7782 12.135 4.64371 -3.20403
lowerback 9.1285 -0.0956478 2.90188
upperback -2.09314 0.581514 5.03752
thorax -7.38189 0.283243 3.60634
lowerneck -15.6996 1.61893 0.874319
upperneck 13.6061 3.58612 -9.2822
head 6.9527 0.949945 -2.78053
rclavicle -3.97569e-016 -1.43125e-014
rhumerus -23.0697 2.02182 -79.8703
rradius 26.3508
rwrist -8.82739
rhand -19.0422 -4.65556
rfingers 7.12502
rthumb 7.26442 -34.5109
lclavicle -3.97569e-016 -1.43125e-014
lhumerus -51.6849 7.59983 83.7552
lradius 25.7192
lwrist 6.90241
lhand -11.6599 0.868637
lfingers 7.12502
lthumb 14.3847 30.3502
rfemur 8.82654 -0.908335 26.8324
rtibia 11.7013
rfoot 4.85063 -19.8921
rtoes -20.87
lfemur -40.3035 0.780663 -16.7144
ltibia 26.3063
lfoot -15.6454 11.9584
ltoes -17.6049
136
root -1.31605 18.0734 -23.6617 12.4266 4.41076 -3.02537
lowerback 9.27918 -0.000857437 2.77261
upperback -2.14272 0.695703 4.91002
thorax -7.52551 0.341616 3.52842
lowerneck -15.7538 1.66337 0.931108
upperneck 13.5574 3.63011 -9.27984
head 6.9495 0.97444 -2.78386
rclavicle 1.61016e-014 -7.95139e-015
rhumerus -22.4338 2.60997 -80.0775
rradius 27.1179
rwrist -9.29041
rhand -19.3652 -4.66563
rfingers 7.12502
rthumb 6.95266 -34.5314
lclavicle 1.61016e-014 -7.95139e-015
lhumerus -51.9676 8.30005 82.7204
lradius 25.109
lwrist 6.07587
lhand -11.6987 0.754956
lfingers 7.12502
lthumb 14.3473 30.2392
rfemur 9.24313 -0.761154 26.5965
rtibia 11.2394
rfoot 4.6869 -19.9218
rtoes -21.1015
lfemur -41.1198 0.987243 -17.2008
ltibia 26.133
lfoot -15.6457 12.0638
ltoes -17.5965
137
root -1.30031 18.0225 -23.5404 12.72 4.08226 -2.84516
lowerback 9.43078 0.109896 2.62546
upperback -2.19705 0.827618 4.7711
thorax -7.6756 0.409158 3.44498
lowerneck -15.8366 1.70632 0.961994
upperneck 13.5624 3.67817 -9.24897
head 6.96778 0.999521 -2.77367
rclavicle -1.39149e-015 -4.6118e-014
rhumerus -21.8428 3.20791 -80.2813
rradius 27.9038
rwrist -9.77659
rhand -19.695 -4.6725
rfingers 7.12502
rthumb 6.63422 -34.5486
lclavicle -1.39149e-015 -4.6118e-014
lhumerus -52.2658 9.10971 81.5685
lradius 24.4689
lwrist 5.11733
lhand -11.8346 0.639294
lfingers 7.12502
lthumb 14.2164 30.1328
rfemur 9.51327 -0.609633 26.2934
rtibia 11.0641
rfoot 4.48947 -19.8229
rtoes -21.3699
lfemur -41.8444 1.20921 -17.6713
ltibia 26.0849
lfoot -15.6417 12.2381
ltoes -17.6038
138
root -1.2818 17.974 -23.4128 12.9885 3.66725 -2.69437
lowerback 9.58726 0.195067 2.43638
upperback -2.22681 0.92255 4.69266
thorax -7.80276 0.462226 3.45484
lowerneck -15.9539 1.84971 1.04623
upperneck 13.5347 3.87344 -9.3597
head 6.99439 1.0856 -2.80227
rclavicle -2.38542e-015 -4.29375e-014
rhumerus -21.2258 3.99883 -80.4545
rradius 28.6871
rwrist -10.2972
rhand -19.9927 -4.64246
rfingers 7.12502
rthumb 6.34683 -34.5274
lclavicle -2.38542e-015 -4.29375e-014
lhumerus -52.6082 10.2238 80.3074
lradius 23.8274
lwrist 4.0007
lhand -12.0923 0.499148
lfingers 7.12502
lthumb 13.9681 30.0099
rfemur 9.67773 -0.443206 25.9608
rtibia 11.1455
rfoot 4.30997 -19.6078
rtoes -21.7467
lfemur -42.4537 1.4504 -18.0879
ltibia 26.207
lfoot -15.638 12.4772
ltoes -17.6766
139
root -1.2603 17.9285 -23.277 13.2108 3.18322 -2.58986
lowerback 9.73514 0.309623 2.28975
upperback -2.23043 1.05852 4.6038
thorax -7.89813 0.532996 3.42157
lowerneck -16.0605 1.94866 1.08527
upperneck 13.471 4.00467 -9.41152
head 7.00187 1.14515 -2.81055
rclavicle -6.95746e-015 1.59028e-015
rhumerus -20.668 4.68892 -80.5941
rradius 29.4701
rwrist -10.7874
rhand -20.2084 -4.42218
rfingers 7.12502
rthumb 6.13859 -34.3132
lclavicle -6.95746e-015 1.59028e-015
lhumerus -52.9464 11.3533 78.978
lradius 23.1777
lwrist 2.80275
lhand -12.4758 0.349583
lfingers 7.12502
lthumb 13.5984 29.8855
rfemur 9.78464 -0.274893 25.6187
rtibia 11.441
rfoot 4.17288 -19.2894
rtoes -22.2045
lfemur -42.9255 1.70258 -18.4303
ltibia 26.5429
lfoot -15.6601 12.7968
ltoes -17.7989
140
root -1.23686 17.8865 -23.1326 13.3745 2.65842 -2.54288
lowerback 9.8754 0.452485 2.20434
upperback -2.20527 1.23635 4.49922
thorax -7.95851 0.620635 3.32855
lowerneck -16.2041 1.99462 1.06341
upperneck 13.4292 4.0612 -9.35455
head 7.01456 1.17357 -2.78139
rclavicle -1.2921e-014 -6.20208e-014
rhumerus -20.1655 5.20133 -80.7016
rradius 30.2071
rwrist -11.1797
rhand -20.2834 -3.95107
rfingers 7.12502
rthumb 6.06624 -33.8442
lclavicle -1.2921e-014 -6.20208e-014
lhumerus -53.2787 12.4263 77.6147
lradius 22.5475
lwrist 1.57742
lhand -12.9502 0.209588
lfingers 7.12502
lthumb 13.1412 29.7755
rfemur 9.85463 -0.102564 25.2992
rtibia 11.9251
rfoot 4.11882 -18.9212
rtoes -22.7269
lfemur -43.2512 1.96557 -18.6898
ltibia 27.1137
lfoot -15.7109 13.1879
ltoes -17.9702
141
root -1.21189 17.8486 -22.9787 13.4669 2.13029 -2.5276
lowerback 10.0012 0.62954 2.1787
upperback -2.14946 1.46186 4.35675
thorax -7.97655 0.727368 3.15181
lowerneck -16.3134 1.95114 0.9676
upperneck 13.3343 3.98078 -9.14254
head 6.99077 1.1489 -2.70385
rclavicle -2.98177e-015 -4.77083e-015
rhumerus -19.7456 5.468 -80.7761
rradius 30.8929
rwrist -11.4674
rhand -20.2376 -3.2325
rfingers 7.12502
rthumb 6.11043 -33.1244
lclavicle -2.98177e-015 -4.77083e-015
lhumerus -53.5591 13.3535 76.2631
lradius 21.9263
lwrist 0.424127
lhand -13.4849 0.137264
lfingers 7.12502
lthumb 12.6258 29.7357
rfemur 9.90752 0.0562715 24.9918
rtibia 12.5917
rfoot 4.1723 -18.5184
rtoes -23.2857
lfemur -43.4036 2.18602 -18.8777
ltibia 27.9079
lfoot -15.8584 13.6777
ltoes -17.9943
142
root -1.18617 17.8159 -22.8152 13.488 1.62386 -2.50719
lowerback 10.1169 0.835173 2.17037
upperback -2.06601 1.72213 4.16969
thorax -7.957 0.84887 2.91087
lowerneck -16.4024 1.79863 0.76941
upperneck 13.2497 3.74429 -8.74222
head 6.95219 1.06099 -2.56526
rclavicle 3.97569e-016 -5.725e-014
rhumerus -19.4177 5.47331 -80.8186
rradius 31.5095
rwrist -11.6175
rhand -20.0613 -2.28407
rfingers 7.12502
rthumb 6.28062 -32.171
lclavicle 3.97569e-016 -5.725e-014
lhumerus -53.7763 14.0872 74.9727
lradius 21.3259
lwrist -0.644283
lhand -14.0756 -0.00622552
lfingers 7.12502
lthumb 12.0562 29.6265
rfemur 9.92509 0.191772 24.6729
rtibia 13.4682
rfoot 4.35282 -18.1091
rtoes -23.8962
lfemur -43.3712 2.32367 -19.0235
ltibia 28.8694
lfoot -16.1298 14.3011
ltoes -17.8734
143
root -1.15975 17.7893 -22.6415 13.4284 1.16379 -2.43053
lowerback 10.2306 1.0346 2.11996
upperback -1.96309 1.96479 3.94994
thorax -7.91286 0.96295 2.66146
lowerneck -16.4085 1.59512 0.530346
upperneck 13.1175 3.42585 -8.23731
head 6.8784 0.944356 -2.3946
rclavicle -8.94531e-015 -2.54444e-014
rhumerus -19.1834 5.33909 -80.8498
rradius 32.0437
rwrist -11.6662
rhand -19.8083 -1.20598
rfingers 7.12502
rthumb 6.52489 -31.0855
lclavicle -8.94531e-015 -2.54444e-014
lhumerus -53.9637 14.7013 73.755
lradius 20.7818
lwrist -1.5546
lhand -14.591 -0.035416
lfingers 7.12502
lthumb 11.5592 29.6258
rfemur 9.90454 0.280598 24.2942
rtibia 14.5713
rfoot 4.68453 -17.6996
rtoes -24.5504
lfemur -43.1352 2.34743 -19.1832
ltibia 29.9106
lfoot -16.5419 15.0782
ltoes -17.539
